<?xml version="1.0" encoding="utf-8"?>
<!-- Generator: Adobe Illustrator 29.1.0, SVG Export Plug-In . SVG Version: 9.03 Build 55587)  -->
<svg version="1.0" id="Layer_1" xmlns="http://www.w3.org/2000/svg" xmlns:xlink="http://www.w3.org/1999/xlink" x="0px" y="0px"
	 viewBox="0 0 5000 5000" style="enable-background:new 0 0 5000 5000;" xml:space="preserve">
<style type="text/css">
	.st0{enable-background:new    ;}
	.st1{fill:#231F20;}
	.st2{fill:none;}
</style>
<g class="st0">
	<path class="st1" d="M1455.2,2448.69h-408v-693h51v642h357V2448.69z"/>
	<path class="st1" d="M2482.72,2448.69H2422l-85.22-223h-339.47c-12.08,35.42-25.36,72.61-39.86,111.58s-28.48,76.11-41.95,111.42
		h-53.78c22.75-59.94,45.2-118.62,67.34-176.03c22.12-57.41,44.16-114.5,66.08-171.28s43.95-113.88,66.09-171.28
		c22.12-57.41,44.58-115.88,67.34-175.41h72L2482.72,2448.69z M2321.8,2185.69l-159.61-384.11l-151.78,384.11H2321.8z"/>
	<path class="st1" d="M3005.09,2448.69h-51v-693h51V2448.69z"/>
	<path class="st1" d="M3958.61,2448.69h-408v-693h51v642h357V2448.69z"/>
</g>
<g>
	<rect x="6278.53" y="2172.4" class="st2" width="0" height="5.7"/>
</g>
<g class="st0">
	<path class="st1" d="M1189.47,2872.82h-157.47v-267.33h19.53v247.8h137.94V2872.82z"/>
	<path class="st1" d="M1235.28,2872.82h-19.53v-267.33h19.53V2872.82z"/>
	<path class="st1" d="M1392.41,2877.7c-19.04,0-36.42-3.34-52.12-10.01c-15.71-6.67-29.17-16.07-40.41-28.2
		c-11.23-12.12-19.9-26.77-26-43.95c-6.1-17.17-9.16-36.25-9.16-57.25c0-21.16,3.09-40.2,9.28-57.13
		c6.18-16.93,14.85-31.37,26-43.33c11.15-11.96,24.45-21.16,39.92-27.59c15.46-6.43,32.55-9.64,51.27-9.64
		c14.65,0,28.32,1.83,41.02,5.49s24.01,8.87,33.94,15.62c9.93,6.76,18.15,14.85,24.66,24.29c6.51,9.44,10.99,19.94,13.43,31.49h-21
		c-1.3-7.81-4.44-15.17-9.4-22.09c-4.97-6.92-11.44-12.98-19.41-18.19c-7.98-5.21-17.25-9.36-27.83-12.45
		c-10.58-3.09-22.22-4.64-34.91-4.64c-15.62,0-29.95,2.53-42.97,7.57c-13.02,5.05-24.21,12.57-33.57,22.58
		c-9.36,10.01-16.64,22.38-21.85,37.11c-5.21,14.73-7.81,31.7-7.81,50.9c0,19.04,2.6,36.01,7.81,50.9
		c5.21,14.89,12.49,27.47,21.85,37.72c9.36,10.25,20.59,18.03,33.69,23.32c13.1,5.29,27.55,7.93,43.33,7.93
		c22.13,0,41.34-4.23,57.62-12.7c16.27-8.46,30.03-20.18,41.26-35.16v-48.1h-73.73v-19.53h93.26v130.13h-11.23l-8.54-35.64
		c-6.19,7.49-13.02,13.79-20.51,18.92c-7.49,5.13-15.42,9.28-23.8,12.45c-8.38,3.17-17.13,5.49-26.25,6.96
		C1411.13,2876.97,1401.85,2877.7,1392.41,2877.7z"/>
	<path class="st1" d="M1742.42,2872.82h-19.78v-133.06h-164.79v133.06h-19.53v-267.33h19.53v114.75h164.79v-114.75h19.78V2872.82z"
		/>
	<path class="st1" d="M1961.09,2625.02h-93.51v247.8h-19.53v-247.8h-92.53v-19.53h205.57V2625.02z"/>
	<path class="st1" d="M2002.01,2872.82h-19.53v-267.33h19.53V2872.82z"/>
	<path class="st1" d="M2250.71,2872.82h-25.63l-163.09-244.14v244.14h-19.53v-267.33h26.86l161.87,243.65v-243.65h19.53V2872.82z"/>
	<path class="st1" d="M2398.08,2877.7c-19.04,0-36.42-3.34-52.12-10.01c-15.71-6.67-29.17-16.07-40.41-28.2
		c-11.23-12.12-19.9-26.77-26-43.95c-6.1-17.17-9.16-36.25-9.16-57.25c0-21.16,3.09-40.2,9.28-57.13
		c6.18-16.93,14.85-31.37,26-43.33c11.15-11.96,24.45-21.16,39.92-27.59c15.46-6.43,32.55-9.64,51.27-9.64
		c14.65,0,28.32,1.83,41.02,5.49s24.01,8.87,33.94,15.62c9.93,6.76,18.15,14.85,24.66,24.29c6.51,9.44,10.99,19.94,13.43,31.49h-21
		c-1.3-7.81-4.44-15.17-9.4-22.09c-4.97-6.92-11.44-12.98-19.41-18.19c-7.98-5.21-17.25-9.36-27.83-12.45
		c-10.58-3.09-22.22-4.64-34.91-4.64c-15.62,0-29.95,2.53-42.97,7.57c-13.02,5.05-24.21,12.57-33.57,22.58
		c-9.36,10.01-16.64,22.38-21.85,37.11c-5.21,14.73-7.81,31.7-7.81,50.9c0,19.04,2.6,36.01,7.81,50.9
		c5.21,14.89,12.49,27.47,21.85,37.72c9.36,10.25,20.59,18.03,33.69,23.32c13.1,5.29,27.55,7.93,43.33,7.93
		c22.13,0,41.34-4.23,57.62-12.7c16.27-8.46,30.03-20.18,41.26-35.16v-48.1h-73.73v-19.53h93.26v130.13h-11.23l-8.54-35.64
		c-6.19,7.49-13.02,13.79-20.51,18.92c-7.49,5.13-15.42,9.28-23.8,12.45c-8.38,3.17-17.13,5.49-26.25,6.96
		C2416.79,2876.97,2407.52,2877.7,2398.08,2877.7z"/>
	<path class="st1" d="M2944.29,2737.08c0,90.5-45.01,135.74-135.01,135.74h-80.81v-267.09h80.81c45.08,0,78.86,10.86,101.32,32.59
		S2944.29,2692.97,2944.29,2737.08z M2923.54,2737.08c0-17.58-1.75-33.28-5.25-47.12c-3.5-13.83-9.64-25.59-18.43-35.28
		c-8.79-9.68-20.55-17.05-35.28-22.09c-14.73-5.04-33.33-7.57-55.79-7.57H2748v228.27h60.79c22.3,0,40.81-2.6,55.54-7.81
		c14.73-5.21,26.49-12.82,35.28-22.83s14.97-22.17,18.55-36.5C2921.74,2771.83,2923.54,2755.47,2923.54,2737.08z"/>
	<path class="st1" d="M3161,2872.82h-193.12v-267.33h186.52v19.53h-166.99v98.88h156.49v19.53h-156.49v109.86H3161V2872.82z"/>
	<path class="st1" d="M3283.96,2877.7c-18.07,0-33.86-1.92-47.36-5.74c-13.51-3.82-24.86-9.28-34.06-16.36
		c-9.2-7.08-16.24-15.62-21.12-25.63s-7.73-21.28-8.54-33.81h19.29c1.95,12.05,5.62,22.06,10.99,30.03
		c5.37,7.98,12,14.32,19.9,19.04c7.89,4.72,16.88,8.06,26.98,10.01c10.09,1.95,20.83,2.93,32.23,2.93c11.88,0,22.58-1.26,32.1-3.78
		c9.52-2.52,17.66-6.18,24.41-10.99c6.75-4.8,11.92-10.58,15.5-17.33c3.58-6.75,5.37-14.36,5.37-22.83c0-8.95-1.55-16.48-4.64-22.58
		c-3.09-6.1-8.3-11.43-15.62-15.99c-7.32-4.55-16.97-8.62-28.93-12.21c-11.96-3.58-26.82-7.24-44.56-10.99
		c-14.65-3.25-27.22-7-37.72-11.23c-10.5-4.23-19.17-9.16-26-14.77s-11.88-12.04-15.14-19.29c-3.26-7.24-4.88-15.66-4.88-25.27
		c0-10.41,2.2-19.94,6.59-28.56c4.39-8.62,10.62-16.03,18.68-22.22c8.06-6.18,17.74-10.99,29.05-14.4
		c11.31-3.42,23.8-5.13,37.48-5.13s26.2,1.59,37.6,4.76c11.39,3.17,21.36,7.77,29.91,13.79c8.54,6.02,15.46,13.35,20.75,21.97
		c5.29,8.63,8.67,18.39,10.13,29.3h-18.8c-1.79-7.16-4.72-13.83-8.79-20.02c-4.07-6.18-9.32-11.51-15.75-15.99
		c-6.43-4.47-14.08-7.97-22.95-10.5c-8.87-2.52-19-3.78-30.4-3.78c-23.93,0-42.03,4.39-54.32,13.18
		c-12.29,8.79-18.43,20.84-18.43,36.13c0,7,1.14,13.1,3.42,18.31c2.28,5.21,6.14,9.89,11.6,14.04c5.45,4.15,12.65,7.81,21.61,10.99
		c8.95,3.17,20.1,6.15,33.45,8.91c7.81,1.63,15.87,3.34,24.17,5.13c8.3,1.79,16.4,3.91,24.29,6.35c7.89,2.44,15.42,5.46,22.58,9.03
		c7.16,3.58,13.39,7.98,18.68,13.18c5.29,5.21,9.52,11.44,12.7,18.68c3.17,7.24,4.76,15.83,4.76,25.76c0,11.39-2.4,21.85-7.2,31.37
		c-4.8,9.52-11.47,17.74-20.02,24.66c-8.54,6.92-18.72,12.29-30.52,16.11C3310.61,2875.79,3297.79,2877.7,3283.96,2877.7z"/>
	<path class="st1" d="M3431.82,2872.82h-19.53v-267.33h19.53V2872.82z"/>
	<path class="st1" d="M3588.96,2877.7c-19.04,0-36.42-3.34-52.12-10.01c-15.71-6.67-29.17-16.07-40.41-28.2
		c-11.23-12.12-19.9-26.77-26-43.95c-6.1-17.17-9.16-36.25-9.16-57.25c0-21.16,3.09-40.2,9.28-57.13
		c6.18-16.93,14.85-31.37,26-43.33c11.15-11.96,24.45-21.16,39.92-27.59c15.46-6.43,32.55-9.64,51.27-9.64
		c14.65,0,28.32,1.83,41.02,5.49s24.01,8.87,33.94,15.62c9.93,6.76,18.15,14.85,24.66,24.29c6.51,9.44,10.99,19.94,13.43,31.49h-21
		c-1.3-7.81-4.44-15.17-9.4-22.09c-4.97-6.92-11.44-12.98-19.41-18.19c-7.98-5.21-17.25-9.36-27.83-12.45
		c-10.58-3.09-22.22-4.64-34.91-4.64c-15.62,0-29.95,2.53-42.97,7.57c-13.02,5.05-24.21,12.57-33.57,22.58
		c-9.36,10.01-16.64,22.38-21.85,37.11c-5.21,14.73-7.81,31.7-7.81,50.9c0,19.04,2.6,36.01,7.81,50.9
		c5.21,14.89,12.49,27.47,21.85,37.72c9.36,10.25,20.59,18.03,33.69,23.32c13.1,5.29,27.55,7.93,43.33,7.93
		c22.13,0,41.34-4.23,57.62-12.7c16.27-8.46,30.03-20.18,41.26-35.16v-48.1h-73.73v-19.53h93.26v130.13h-11.23l-8.54-35.64
		c-6.19,7.49-13.02,13.79-20.51,18.92c-7.49,5.13-15.42,9.28-23.8,12.45c-8.38,3.17-17.13,5.49-26.25,6.96
		C3607.67,2876.97,3598.39,2877.7,3588.96,2877.7z"/>
	<path class="st1" d="M3940.92,2872.82h-25.63l-163.09-244.14v244.14h-19.53v-267.33h26.86l161.87,243.65v-243.65h19.53V2872.82z"/>
</g>
</svg>
