<?xml version="1.0" encoding="utf-8"?>
<!-- Generator: Adobe Illustrator 28.3.0, SVG Export Plug-In . SVG Version: 6.00 Build 0)  -->
<svg version="1.1" id="Layer_1" xmlns="http://www.w3.org/2000/svg" xmlns:xlink="http://www.w3.org/1999/xlink" x="0px" y="0px"
	 viewBox="0 0 441.68 218.46" style="enable-background:new 0 0 441.68 218.46;" xml:space="preserve">
<style type="text/css">
	.st0{fill:none;}
	.st1{fill:url(#SVGID_1_);}
	.st2{fill:url(#SVGID_00000150099367346497395610000007372675450299611069_);}
	.st3{fill:#FFFFFF;}
</style>
<rect x="-1.26" y="-3.06" transform="matrix(-1 -1.224647e-16 1.224647e-16 -1 442.3525 218.9499)" width="444.86" height="225.07"/>
<g>
	<linearGradient id="SVGID_1_" gradientUnits="userSpaceOnUse" x1="160.8514" y1="62.6476" x2="193.6266" y2="103.176">
		<stop  offset="0" style="stop-color:#FFFFFF"/>
		<stop  offset="1" style="stop-color:#000000"/>
	</linearGradient>
	<path class="st1" d="M164.05,104.58c0.15,0,0.45,0,0.6,0c3.6,0,6.89,0.9,9.89,2.7c6.59,4.35,10.49,12.74,14.23,21.13
		c5.24,11.54,11.09,25.17,25.77,25.17c6.59,0,7.49-5.39,7.49-7.94c0-1.65-0.3-4.5-1.95-8.69c-0.15-0.3-0.45-0.9-0.45-1.05
		c-27.72-64.28-28.17-65.48-35.36-82.26c-2.4,5.69-7.94,20.23-14.09,35.51C168.09,94.39,166,99.49,164.05,104.58z"/>
	<g>
		<g>
			<path class="st3" d="M32.41,28.82v-1.5c9.74,0.45,15.43,0.75,21.28,0.75c5.84,0,11.69-0.3,21.73-0.75v1.5
				c-9.89,0-11.99,4.94-11.99,15.58v108.78H83.2c28.32,0,39.86-6.29,54.69-26.82c0.45,0,0.9,0.45,1.2,0.6L134,154.38v0.45H34.35
				v-1.5c8.84,0,9.89-5.69,9.89-14.38V45.9c0-8.69-0.9-13.93-5.69-16.03C36.9,29.12,34.95,28.82,32.41,28.82z"/>
			<path class="st3" d="M136.1,153.63c5.84-3.15,9.44-8.24,12.59-15.43c7.79-19.33,14.83-37.01,20.98-52.74
				c10.79-26.67,21.58-54.39,22.78-57.84c0.15-0.15,0.15-0.15,0.15-0.3h1.2l47.8,111.03c4.64,10.64,8.24,13.93,12.29,15.28v1.2
				c-7.79-0.6-13.48-0.75-19.33-0.75c-5.84,0-11.84,0.15-20.23,0.75c-10.04,0-16.03-5.84-20.68-13.34c-2.4-3.75-4.5-7.79-6.3-12.14
				c-5.39-13.04-11.54-23.52-22.77-23.52c-0.45,0-1.05,0-1.5,0c-5.24,13.63-10.19,25.62-12.14,30.87c-0.9,2.25-1.2,4.35-1.2,6.29
				c0,1.35,0.3,3.15,0.9,5.39c0.75,2.25,3.15,3.9,7.49,5.24v1.2c-4.35-0.45-7.34-0.6-10.19-0.6c-3.74,0-7.04,0.15-11.84,0.6V153.63z
				 M163.82,104.19c0.15,0,0.45,0,0.6,0c3.6,0,6.89,0.9,9.89,2.7c6.59,4.35,10.49,12.74,14.23,21.13
				c5.24,11.54,11.09,25.17,25.77,25.17c6.59,0,7.49-5.39,7.49-7.94c0-1.65-0.3-4.5-1.95-8.69c-0.15-0.3-0.45-0.9-0.45-1.05
				c-27.72-64.28-28.17-65.48-35.36-82.26c-2.4,5.69-7.94,20.23-14.09,35.51C167.87,94,165.77,99.09,163.82,104.19z"/>
			<path class="st3" d="M261.23,154.53c-2.4,0.15-4.5,0.15-6.44,0.3v-1.5c10.64,0,11.84-4.64,11.84-15.58V43.21
				c0-8.69-1.05-14.38-9.89-14.38v-1.5c8.54,0.6,13.63,0.9,18.88,0.9c5.54,0,10.94-0.3,20.08-0.9v1.5c-8.84,0-9.89,5.39-9.89,13.93
				v95c0,10.64,2.1,15.58,11.99,15.58v1.5c-7.04-0.45-14.09-0.6-20.53-0.6C270.82,154.23,265.27,154.38,261.23,154.53z"/>
			<path class="st3" d="M302.59,28.82v-1.5c9.74,0.45,15.43,0.75,21.28,0.75c5.84,0,11.69-0.3,21.73-0.75v1.5
				c-9.89,0-11.99,4.94-11.99,15.58v108.78h19.78c28.32,0,39.86-6.29,54.69-26.82c0.45,0,0.9,0.45,1.2,0.6l-5.09,27.42v0.45h-99.64
				v-1.5c8.84,0,9.89-5.69,9.89-14.38V45.9c0-8.69-0.9-13.93-5.69-16.03C307.08,29.12,305.13,28.82,302.59,28.82z"/>
		</g>
		<g>
			<path class="st3" d="M38.85,171.28h2.2v17.49h10.99v2.04H38.85V171.28z"/>
			<path class="st3" d="M64.13,171.28h2.2v19.52h-2.2V171.28z"/>
			<path class="st3" d="M79,181.09v-0.05c0-5.35,3.93-10.09,9.79-10.09c3.29,0,5.32,0.95,7.28,2.59l-1.42,1.67
				c-1.51-1.31-3.18-2.23-5.94-2.23c-4.32,0-7.42,3.65-7.42,8v0.06c0,4.66,2.98,8.11,7.72,8.11c2.23,0,4.29-0.86,5.63-1.95v-4.85
				H88.7v-1.98h8.06v7.78c-1.81,1.62-4.54,2.98-7.83,2.98C82.79,191.13,79,186.67,79,181.09z"/>
			<path class="st3" d="M109.55,171.28h2.2v8.67h11.27v-8.67h2.2v19.52h-2.2v-8.78h-11.27v8.78h-2.2V171.28z"/>
			<path class="st3" d="M143.72,173.31h-6.55v-2.04h15.34v2.04h-6.55v17.48h-2.23V173.31z"/>
			<path class="st3" d="M164.65,171.28h2.2v19.52h-2.2V171.28z"/>
			<path class="st3" d="M180.39,171.28h2.06l12.3,15.64v-15.64h2.15v19.52h-1.76l-12.6-16.01v16.01h-2.15V171.28z"/>
			<path class="st3" d="M209.38,181.09v-0.05c0-5.35,3.93-10.09,9.79-10.09c3.29,0,5.32,0.95,7.28,2.59l-1.42,1.67
				c-1.51-1.31-3.18-2.23-5.94-2.23c-4.32,0-7.42,3.65-7.42,8v0.06c0,4.66,2.98,8.11,7.72,8.11c2.23,0,4.29-0.86,5.63-1.95v-4.85
				h-5.94v-1.98h8.06v7.78c-1.81,1.62-4.54,2.98-7.83,2.98C213.17,191.13,209.38,186.67,209.38,181.09z"/>
			<path class="st3" d="M256.11,171.28h6.78c6.13,0,10.37,4.21,10.37,9.7v0.06c0,5.49-4.24,9.76-10.37,9.76h-6.78V171.28z
				 M258.31,173.31v15.45h4.57c4.94,0,8.09-3.35,8.09-7.67v-0.05c0-4.32-3.15-7.72-8.09-7.72H258.31z"/>
			<path class="st3" d="M285.74,171.28h14.11v2.01h-11.91v6.66h10.65v2.01h-10.65v6.83h12.05v2.01h-14.25V171.28z"/>
			<path class="st3" d="M310.96,187.95l1.37-1.62c2.04,1.84,3.99,2.76,6.69,2.76c2.62,0,4.35-1.39,4.35-3.32v-0.06
				c0-1.81-0.97-2.85-5.07-3.71c-4.49-0.98-6.55-2.43-6.55-5.63v-0.06c0-3.07,2.7-5.33,6.41-5.33c2.84,0,4.88,0.81,6.86,2.4
				l-1.28,1.7c-1.81-1.48-3.63-2.12-5.63-2.12c-2.54,0-4.16,1.39-4.16,3.15v0.05c0,1.84,1,2.87,5.3,3.79
				c4.35,0.95,6.36,2.54,6.36,5.52v0.05c0,3.35-2.79,5.52-6.66,5.52C315.84,191.08,313.3,190.05,310.96,187.95z"/>
			<path class="st3" d="M338.11,171.28h2.2v19.52h-2.2V171.28z"/>
			<path class="st3" d="M352.98,181.09v-0.05c0-5.35,3.93-10.09,9.79-10.09c3.29,0,5.32,0.95,7.28,2.59l-1.42,1.67
				c-1.51-1.31-3.18-2.23-5.94-2.23c-4.32,0-7.42,3.65-7.42,8v0.06c0,4.66,2.98,8.11,7.72,8.11c2.23,0,4.29-0.86,5.63-1.95v-4.85
				h-5.94v-1.98h8.06v7.78c-1.81,1.62-4.54,2.98-7.83,2.98C356.77,191.13,352.98,186.67,352.98,181.09z"/>
			<path class="st3" d="M383.53,171.28h2.06l12.3,15.64v-15.64h2.15v19.52h-1.76l-12.6-16.01v16.01h-2.15V171.28z"/>
		</g>
	</g>
</g>
</svg>
